<?xml version="1.0" encoding="UTF-8" standalone="no"?><svg xmlns="http://www.w3.org/2000/svg" xmlns:xlink= "http://www.w3.org/1999/xlink" width="600" height="390" style="overflow: hidden;" aria-label="A chart."><defs id="_ABSTRACT_RENDERER_ID_18"></defs><rect x="0" y="0" width="600" height="390" stroke="none" stroke-width="0" fill="#FFFFFF" fill-opacity="0.0"></rect><g><text text-anchor="start" x="115" y="52.05" font-family="Arial" font-size="13" font-weight="bold" stroke="none" stroke-width="0" fill="#FFFFFF">Meta-Score</text><rect x="115" y="41" width="371" height="13" stroke="none" stroke-width="0" fill-opacity="0" fill="#ffffff"></rect></g><g><rect x="115" y="75" width="121" height="114" stroke="none" stroke-width="0" fill-opacity="0" fill="#ffffff"></rect><g column-id="Posts"><rect x="115" y="75" width="121" height="13" stroke="none" stroke-width="0" fill-opacity="0" fill="#ffffff"></rect><g><text text-anchor="start" x="133" y="86.05" font-family="Arial" font-size="13" stroke="none" stroke-width="0" fill="#FFFFFF">Posts</text></g><circle cx="121.5" cy="81.5" r="6.5" stroke="none" stroke-width="0" fill="#3366cc"></circle></g><g column-id="Ratio Upvotes"><rect x="115" y="96" width="121" height="13" stroke="none" stroke-width="0" fill-opacity="0" fill="#ffffff"></rect><g><text text-anchor="start" x="133" y="107.05" font-family="Arial" font-size="13" stroke="none" stroke-width="0" fill="#FFFFFF">Ratio Upvotes</text></g><circle cx="121.5" cy="102.5" r="6.5" stroke="none" stroke-width="0" fill="#dc3912"></circle></g><g column-id="Reddit Score"><rect x="115" y="117" width="121" height="13" stroke="none" stroke-width="0" fill-opacity="0" fill="#ffffff"></rect><g><text text-anchor="start" x="133" y="128.05" font-family="Arial" font-size="13" stroke="none" stroke-width="0" fill="#FFFFFF">Reddit Score</text></g><circle cx="121.5" cy="123.5" r="6.5" stroke="none" stroke-width="0" fill="#ff9900"></circle></g><g column-id="An치lisis Sem치ntico"><rect x="115" y="138" width="121" height="30" stroke="none" stroke-width="0" fill-opacity="0" fill="#ffffff"></rect><g><text text-anchor="start" x="133" y="149.05" font-family="Arial" font-size="13" stroke="none" stroke-width="0" fill="#FFFFFF">An치lisis</text><text text-anchor="start" x="133" y="166.05" font-family="Arial" font-size="13" stroke="none" stroke-width="0" fill="#FFFFFF">Sem치ntico</text></g><circle cx="121.5" cy="144.5" r="6.5" stroke="none" stroke-width="0" fill="#109618"></circle></g><g column-id="Reddit Award"><rect x="115" y="176" width="121" height="13" stroke="none" stroke-width="0" fill-opacity="0" fill="#ffffff"></rect><g><text text-anchor="start" x="133" y="187.05" font-family="Arial" font-size="13" stroke="none" stroke-width="0" fill="#FFFFFF">Reddit Award</text></g><circle cx="121.5" cy="182.5" r="6.5" stroke="none" stroke-width="0" fill="#990099"></circle></g></g><g><path d="M372,196L304.99248123865806,103.772062641256A114,114,0,0,1,372,82L372,196A0,0,0,0,0,372,196" stroke="#ffffff" stroke-width="1" fill="#990099"></path><text text-anchor="start" x="331.10544545333084" y="114.69938869487923" font-family="Arial" font-size="13" stroke="none" stroke-width="0" fill="#ffffff">10%</text></g><g><path d="M372,196L258,196A114,114,0,0,1,304.99248123865806,103.772062641256L372,196A0,0,0,0,0,372,196" stroke="#ffffff" stroke-width="1" fill="#109618"></path><text text-anchor="start" x="281.9583041254772" y="161.29529527972073" font-family="Arial" font-size="13" stroke="none" stroke-width="0" fill="#ffffff">15%</text></g><g><path d="M372,196L279.772062641256,263.00751876134194A114,114,0,0,1,258,196L372,196A0,0,0,0,0,372,196" stroke="#ffffff" stroke-width="1" fill="#ff9900"></path><text text-anchor="start" x="276.6342681094926" y="227.3122485858647" font-family="Arial" font-size="13" stroke="none" stroke-width="0" fill="#ffffff">10%</text></g><g><path d="M372,196L372,310A114,114,0,0,1,279.772062641256,263.00751876134194L372,196A0,0,0,0,0,372,196" stroke="#ffffff" stroke-width="1" fill="#dc3912"></path><text text-anchor="start" x="318.62343601391854" y="279.79346865528447" font-family="Arial" font-size="13" stroke="none" stroke-width="0" fill="#ffffff">15%</text></g><g><path d="M372,196L372,82A114,114,0,0,1,372,310L372,196A0,0,0,0,0,372,196" stroke="#ffffff" stroke-width="1" fill="#3366cc"></path><text text-anchor="start" x="446.790624563994" y="200.55" font-family="Arial" font-size="13" stroke="none" stroke-width="0" fill="#ffffff">50%</text></g><g></g></svg>