<svg xmlns="http://www.w3.org/2000/svg" viewBox="0 0 1272.66 280.66"><defs><style>.cls-1{fill:#181b26;}.cls-2{fill:#44aff2;}</style></defs><title>Recurso 35</title><g id="Capa_2" data-name="Capa 2"><g id="Capa_10" data-name="Capa 10"><path class="cls-1" d="M502.64,183.47c3.79,1.26,7.31,2.19,10.63,3.58,10.94,4.58,18,13.11,21.73,23.93,4.78,13.72,8.67,27.75,12.84,41.68,2,6.72,3.8,13.51,5.65,20.27.35,1.27.54,2.58.87,4.21-1.38.12-2.4.28-3.41.29-12.15,0-24.3-.06-36.46.05-2.79,0-4.08-.94-4.77-3.69-4-15.72-7.92-31.46-12.29-47.07-2.15-7.68-5.07-15.4-12.12-20a29.39,29.39,0,0,0-12.43-4.5c-8.09-.86-16.29-.64-24.45-.81-3.56-.07-7.13.12-10.69-.05-2.92-.14-3.81,1.07-3.79,3.88.11,11.83,0,23.66,0,35.49,0,10.79,0,21.57,0,32.36,0,3.92-.41,4.31-4.34,4.32q-17.76,0-35.52,0c-3.71,0-4.13-.44-4.13-4.21q0-96,0-191.94c0-3.88.4-4.26,4.39-4.26,27.66,0,55.32-.32,83,.11,15.09.24,29.73,3.27,42.84,11.53,12.9,8.12,18.79,20.27,20.68,34.9a61.57,61.57,0,0,1-2.33,27.27c-4.52,14-14.13,23.18-27.25,29.09C508.57,181.16,505.75,182.2,502.64,183.47Zm-46.73-70c-6,0-11.93.11-17.89,0-2.92-.08-4.1.83-4.08,3.91q.18,22.27,0,44.55c0,2.92,1.1,3.8,3.9,3.77,10.77-.11,21.55,0,32.33-.08a29.46,29.46,0,0,0,15.54-4.32c8.72-5.5,11.34-13.91,11.17-23.73-.24-13.9-10.13-23.95-24-24C467.21,113.42,461.56,113.45,455.91,113.45Z"/><path class="cls-1" d="M977.23,260.35c-3.67,3.4-6.58,6.56-10,9.12-10.4,7.93-22.46,10.83-35.33,11.12-10.66.23-20.68-2-29.38-8.3-10.45-7.62-15.87-18.18-16.53-31-.38-7.42-.22-14.83,2.57-22C892,210.66,898.1,204.7,906,200.2c10-5.74,21.08-8.18,32.36-9.38,11.53-1.22,23.12-1.84,34.7-2.55,2.53-.16,3.72-1,3.49-3.53-.45-4.87-.41-9.84-1.44-14.58-1.3-6-5.63-9.69-11.54-11.21a31.85,31.85,0,0,0-19.17.84c-7.45,2.71-11.47,8.2-11.81,16.14-.13,2.84-1,4.19-4.1,4.16-10.48-.11-21-.09-31.43,0-2.54,0-3.7-.89-3.49-3.49.94-11.85,3.61-23,13-31.29a47.39,47.39,0,0,1,17.28-10c20.85-6.5,41.89-6.86,62.73-.32,18.88,5.92,28.74,19.76,28.9,39.48q.39,48.82.63,97.64c0,5.18-.12,5.3-5.25,5.31q-14.29,0-28.6,0c-3.65,0-4.31-.69-4.48-4.41C977.61,269,977.44,265,977.23,260.35Zm-.73-39.92c0-2.1,0-4.3,0-6.5s-.73-3.11-2.92-3.1c-10.81.06-21.55.71-32,4-8.94,2.83-14.22,8.71-15.3,18.26-1,8.36,3.93,16.6,11.31,18.39a32.29,32.29,0,0,0,17.65-.93C967.75,246.54,978,235.53,976.5,220.43Z"/><path class="cls-1" d="M1233.93,260.42c-2.79,2.64-5.18,5.07-7.74,7.31-8.07,7-17.66,10.59-28.14,12.11-10.12,1.48-20.07,1.14-29.67-2.64-14.55-5.73-23-16.6-25-31.9a66.06,66.06,0,0,1,.39-19.9c2.52-14.31,12.25-22.85,25.13-28.26,10.25-4.3,21.12-6,32.08-7,9.88-.9,19.8-1.36,29.71-1.91,2.14-.11,3.1-1,3-3.07-.29-4.16-.27-8.38-1-12.48-1.35-7.86-6.43-13-14.37-14.14-9-1.3-17.79-.91-24.7,6.51-3.14,3.38-4.2,7.43-4.49,11.75-.16,2.43-1.08,3.29-3.45,3.28q-15.87-.11-31.73,0c-2.49,0-3.3-1.06-3.27-3.41.24-19,8.56-32.53,26.45-39.88,8.82-3.62,18-5.16,27.48-5.92a98.29,98.29,0,0,1,39.32,4.36c9.38,3.11,17.39,8.14,22.54,17a46.82,46.82,0,0,1,6.08,23.47c.27,32.65.09,65.31.16,98,0,2.84-1,3.89-3.83,3.85-10-.12-20.1-.1-30.16,0-2.57,0-3.82-.68-3.86-3.51C1234.73,269.59,1234.26,265.23,1233.93,260.42Zm-1-38.2c0-3.65,0-6.16,0-8.68,0-1.81-.84-2.69-2.67-2.69-10.18,0-20.35.51-30.14,3.42-12.78,3.8-17.5,10.48-16.81,22.6.47,8.28,4.86,13.67,13,14.87,12.26,1.81,22.85-1.91,31-11.33C1232.07,235,1234.1,228.39,1233,222.22Z"/><path class="cls-1" d="M655.58,212.73q-22,0-44,0c-3.87,0-4.35.26-4,4.11.92,11.29,4.18,21.64,13.75,28.76,5.63,4.19,12.4,4.91,19.15,4.57a35.06,35.06,0,0,0,11-2.26c6.76-2.67,11.24-7.63,12-15.18.26-2.82,1.51-3.75,4.22-3.73,11,.08,22,.11,33,0,3,0,3.6,1,3.26,3.92-1.48,12.76-6,24-16.15,32.26-8.53,7-18.58,10.82-29.35,12.81-13.4,2.47-26.84,2.87-40.23.05-20.73-4.37-36-15.7-44.55-35.4-7.06-16.22-7.9-33.21-6.42-50.49a74.63,74.63,0,0,1,10.64-33.48c8.49-13.72,21-22,36.43-25.9a85,85,0,0,1,46.79,1c20.1,6.29,32.41,20.46,38.56,40.18,3.55,11.36,4.67,23.13,4.79,35,0,2.86-1,3.85-3.85,3.83C685.54,212.68,670.56,212.73,655.58,212.73ZM636,187q12.4,0,24.81,0c1.47,0,3.31.08,3-2.11-.8-6.51-2.19-12.93-6.94-17.81-8.82-9.08-19.62-10.14-31-6.52-10.83,3.44-16.12,11.68-17.64,22.61-.43,3.12.25,3.82,3.6,3.83C619.91,187,628,187,636,187Z"/><path class="cls-1" d="M770.62,151.74c3.44-3.21,6.48-6.32,9.8-9.1,9.76-8.19,21.14-12,33.83-12.27,8.38-.19,16.46.63,24.11,4.46,10.15,5.09,15.94,13.57,19.36,24a69.24,69.24,0,0,1,3.2,21.62c.06,30.45.36,60.9.55,91.34,0,5.45-.23,5.67-5.65,5.67q-15.55,0-31.1,0c-3.88,0-4.1-.22-4.11-4.1,0-28.89.1-57.78-.12-86.67A39.08,39.08,0,0,0,818,173.22c-3.08-8.08-10.86-11.32-20.78-10-7.88,1.09-13.86,5.16-19.63,10.32-5,4.49-6.83,9.38-6.74,16.14.37,27.53.16,55.06.15,82.59,0,5.12,0,5.12-5,5.13-10.68,0-21.36-.07-32,0-2.81,0-3.9-.86-3.9-3.78q.09-68.77,0-137.54c0-2.77.81-3.95,3.76-3.92q16,.18,32.05,0c2.8,0,3.88.87,3.92,3.78C769.83,141.19,770.3,146.34,770.62,151.74Z"/><path class="cls-2" d="M312.68,65.49c0,11,.08,22-.05,33,0,2.85,1,4.4,3.63,5.41,16.18,6.23,24.82,18.46,25.74,35.36.88,16.22-8.14,31.6-25.24,38.21-3.14,1.21-4.12,3-4.11,6.07q.09,32.19,0,64.37c0,15.34-10,27.05-25.13,29.45a59.57,59.57,0,0,1-9.05.7c-15.19.07-30.38,0-45.56,0-4.5,0-5.11-.61-5.13-5.05,0-3.56,0-7.12,0-10.67.05-4,1-5,5.06-5q24,0,48.07,0c8.2,0,11.54-3.18,11.57-11.35.06-20.94,0-41.87.06-62.81,0-3-1.23-4.56-3.95-5.6-12.62-4.84-20.54-13.93-24.25-26.88-5.05-17.65,4.49-38.17,21.33-45.54a20.23,20.23,0,0,1,2.62-1.06c3.31-.87,4.29-3,4.26-6.32-.11-15.07,0-30.15-.07-45.22,0-6.68,0-13.4-.6-20-.53-6-3.56-8.24-9.71-8.25H236c-8.22,0-8.22,0-8.22-8.36,0-2.82,0-5.65,0-8.48,0-2.56,1.11-3.9,3.76-3.9,17.49,0,35-.36,52.47.13,16.66.46,28.61,13.47,28.65,30.14C312.7,44.34,312.68,54.92,312.68,65.49Zm8.78,75a18.81,18.81,0,0,0-19.08-18.81c-10.35-.06-18.48,8.5-18.68,19.23-.19,10.05,7.48,18.64,19.27,18.94C313.38,160.08,321.47,151.33,321.46,140.46Z"/><path class="cls-2" d="M29.13,216c0-11-.06-22,0-33,0-2.68-.85-4.14-3.44-5.17C12.33,172.53,3.49,163,.79,148.66c-3.64-19.25,5.53-36.18,22.91-43.94,5.35-2.39,5.43-2.22,5.43-8.23q0-31.42,0-62.83A30.28,30.28,0,0,1,48.88,5.32a17.1,17.1,0,0,1,5.5-1.15Q82,3.75,109.65,3.52c3.53,0,4.3.79,4.35,4.23.06,3.88,0,7.75,0,11.63s-.83,4.81-4.8,4.84c-9,.05-18,0-27,0-7.65,0-15.3,0-22.94,0-5.69,0-8.74,2.83-9.33,8.48-.34,3.33-.59,6.67-.6,10-.06,18.33.06,36.65-.1,55,0,3.51,1.2,5.19,4.42,6.49C67.93,110,76.7,120.69,78.52,135.9s-3.82,27.79-16.23,37a46.73,46.73,0,0,1-9.69,5.06c-2.23.94-3.36,2.06-3.35,4.58.06,21.26,0,42.52.08,63.77,0,6,2.38,11.32,11.18,11.15,15.92-.32,31.85-.1,47.78-.09,5.16,0,5.72.6,5.73,5.82,0,3.56-.07,7.12,0,10.68.06,2.85-1.1,4.26-4.07,4.25-17.5,0-35,.23-52.49-.11-15.54-.3-28.19-13.64-28.32-29.27C29.06,237.81,29.14,226.92,29.13,216Zm28.93-75.19c1-9-6.84-19-18.94-19.09-10.15-.08-18.74,8.76-18.76,19a18.89,18.89,0,0,0,18.73,19.22C50,160,59,150.48,58.06,140.84Z"/><path class="cls-1" d="M1055.09,203.14c0-13.56,0-24.44,0-35.33,0-3.87-.21-4.07-4.11-4.09-5.55,0-11.11-.07-16.66,0-2.66,0-3.78-1-3.75-3.71q.12-12.09,0-24.19c0-2.52,1-3.6,3.56-3.57,5.66.08,11.32-.1,17,.06,3,.09,4.09-.9,4-4-.15-8.9,0-17.8-.1-26.69,0-3,1-4,4-4q16.5.19,33,0c3,0,4,1.08,4,4-.14,8.58,0,17.17,0,25.75,0,4.8,0,4.8,5,4.81,7.54,0,15.09.09,22.63,0,2.83-.05,3.92.9,3.87,3.8-.13,7.85,0,15.7,0,23.55,0,3.68-.45,4.09-4.24,4.11-7.75,0-15.51.11-23.26,0-3-.06-4,1-4,4,.09,20.73,0,41.46.07,62.19,0,10.5,5.2,15.5,15.76,15.51,4.09,0,8.17.05,12.26,0,2.39,0,3.4,1,3.39,3.41,0,8.48,0,17,0,25.44,0,1.8-.58,3.15-2.63,3.15-15.39,0-30.84.5-45.67-4.65-12.52-4.35-19.44-13.48-22.15-26.25C1053.68,231.23,1055.83,215.8,1055.09,203.14Z"/><path class="cls-1" d="M192.89,124.75c6.39,0,12.77,0,19.16,0,5.32,0,8.73,2.55,9.38,6.94s-1.8,8.2-6.69,9.57c-2.48.7-3.14,2-3.4,4.42-1,9.14-2.23,18.26-3.49,27.37-.37,2.68.36,4,3.25,3.86,5.53-.27,11.07-.55,16.61-.59a8.61,8.61,0,0,1,8.48,6.64c.89,3.28-.72,7.91-4.33,9.18-3.2,1.12-6.94.86-10.45.94-2.7.06-5.41-.44-8.12-.45q-41,0-82,0c-3.45,0-6.89.54-10.33.56-5.63,0-9.28-3.87-8.77-9.1.5-5.06,5-8.05,10.34-7.67,6.77.48,13.59.35,20.39.41,2.63,0,3.21-2,3.52-4,1-6.3,1.86-12.62,2.77-18.93.43-3,.86-6,1.24-9,.34-2.6-.63-4-3.48-3.78s-5.65.12-8.46.33c-5.21.39-9.71-3-10-7.78-.31-5.27,3.3-8.82,9.09-8.87,4.19,0,8.38,0,12.57,0,2.11,0,3.23-.72,3.5-3,.64-5.4,1.55-10.76,2.31-16.15.47-3.35-.16-4.12-3.65-4.06-7.84.14-15.69.63-23.52.48a16.79,16.79,0,0,1-8.12-2.52c-3.07-1.92-3.51-5.33-2.46-8.71a7.68,7.68,0,0,1,7.56-5.56c3.13,0,6.26.54,9.39.54q36.75.08,73.52,0c3.76,0,7.51-.46,11.27-.57,5.94-.17,9.92,4.24,8.94,9.79a9.18,9.18,0,0,1-8.79,7.11q-14-.34-27.92-.57c-5.24-.08-10.48.1-15.71,0-2.72-.08-4.07,1-4.43,3.64q-1.16,8.38-2.48,16.76c-.39,2.44.92,2.88,2.88,2.88C179.27,124.74,186.08,124.75,192.89,124.75Zm-16.48,52.14c4.39,0,8.79,0,13.19,0,1.89,0,3.27-.5,3.54-2.66,1.26-9.84,2.55-19.68,3.81-29.52.31-2.45-.58-3.68-3.28-3.65-7.95.1-15.91.07-23.86,0-2.27,0-3.43.8-3.81,3.13q-2.43,14.85-5.07,29.67c-.42,2.34.47,3,2.6,3C167.82,176.87,172.12,176.89,176.41,176.89Z"/><path class="cls-1" d="M391.25,25.75c0-7.22.09-14.43-.05-21.64-.06-2.89,1-3.89,3.87-3.8,4.7.16,9.41,0,14.11,0,13.89.08,23.27,8.94,24.15,22.83.46,7.21-.88,14-5.36,19.83-4.32,5.58-10.51,7.82-17.34,8.17-5.32.27-10.66,0-16,.1-2.65.06-3.46-1.11-3.43-3.59C391.3,40.38,391.25,33.06,391.25,25.75Zm7.55.13c0,5.33,0,10.66,0,16,0,2,.72,3.16,2.91,3.1,2.4-.06,4.83.18,7.21-.09,4.14-.45,8.28-1,11.51-4.21,5.47-5.49,7.05-16.82,3.3-25-2.11-4.6-5.59-7.6-10.63-8.3-3.6-.5-7.27-.45-10.91-.72-2.65-.2-3.46,1.09-3.41,3.57C398.87,15.43,398.8,20.66,398.8,25.88Z"/><path class="cls-1" d="M600.22,50.65c1.33-3.75,2.54-7.28,3.85-10.77,4.53-12,9.18-24,13.56-36.12,1.1-3,3-3.4,5.74-3.49s3.86,1.37,4.69,3.63c5.27,14.32,10.62,28.62,15.86,43,.49,1.33,2.34,3.1-.2,4.23s-5.89,0-6.68-2.18c-1-2.74-2-5.52-2.79-8.33-.65-2.25-1.89-3.24-4.29-3.18-4.81.12-9.63.1-14.44,0-2.24,0-3.49.82-4.11,3s-1.51,4.13-2.24,6.2C607.41,51.62,606.36,52.15,600.22,50.65Zm30.62-19.59c-2.72-7.64-5.15-14.43-7.57-21.22l-1,0c-2.31,6.34-4.66,12.66-6.83,19.05-.17.49.9,2,1.43,2.05C621.27,31.13,625.63,31.06,630.84,31.06Z"/><path class="cls-1" d="M690.43,46.93C686,50.86,682,52.86,676.84,52a12.3,12.3,0,0,1-9.91-7.73,27.81,27.81,0,0,1-.19-22c3.51-8.63,13.06-11.15,20.93-6,.69.45,1.33,1,2.8,2.06V11.77c0-2.83.06-5.65,0-8.47,0-2.16,1-3,3.07-3s3.83.27,3.83,2.93c0,3.35,0,6.69,0,10,0,11.08,0,22.17,0,33.25,0,1.78.93,4.32-2.22,4.63C692.57,51.45,690.06,51.42,690.43,46.93Zm0-13.23c0-2.45.06-4.12,0-5.79-.16-3.62-3.53-7.24-7.31-7.94-5-.93-7.92.43-9.78,4.63-2.47,5.59-2.19,11.27-.11,16.82,1.94,5.16,8.73,6.43,13.14,3A10.68,10.68,0,0,0,690.46,33.7Z"/><path class="cls-1" d="M438.87,34.6c.43-8.87,2-15.67,9.37-19.36a16.64,16.64,0,0,1,23.92,11.47,26.34,26.34,0,0,1-1.07,15.39,15.05,15.05,0,0,1-14,9.78c-8.4.14-13.66-2.75-16.14-9.3A61.06,61.06,0,0,1,438.87,34.6Zm16.8,11.62c4.74,0,7.46-1.84,9-6.31A23.1,23.1,0,0,0,464.75,26c-1.23-4.52-4-6.64-8.63-6.79a8.61,8.61,0,0,0-8.9,6.1,22.4,22.4,0,0,0,.18,15.38C448.79,44.35,451.7,46.22,455.67,46.22Z"/><path class="cls-1" d="M556.71,52.27c-12.61.1-18.14-10.89-16.86-22.23,1.21-10.6,6.88-16.19,15.68-16.48,10.39-.35,17.11,6.23,18,17.59.69,9-3.19,16.57-10.19,19.48A43.74,43.74,0,0,1,556.71,52.27ZM566,33.16h.23c-.12-1.87-.19-3.75-.39-5.62a9.86,9.86,0,0,0-.71-2.4c-1.54-4-4.2-5.82-8.36-5.89s-7.15,1.83-8.68,5.87A21.93,21.93,0,0,0,547.39,39c1.42,5.29,4.88,7.74,10.44,7.23,4.4-.4,7.79-4.09,8.13-9C566.06,35.88,566,34.51,566,33.16Z"/><path class="cls-1" d="M495.45,51.89c-9,0-14.85-4.48-16.15-13.36a35.45,35.45,0,0,1,.42-13c3-12.63,17.66-14.87,25.63-8.92a16.31,16.31,0,0,1,4.3,5.92c.51,1,.28,3.41-.47,3.92-1.94,1.33-5.25.05-6.08-1.84a8.67,8.67,0,0,0-14.65-2.31c-4.06,4.61-3.74,16.15.06,21,3.55,4.54,13.68,3.87,15.13-2.64.54-2.45,3.08-3.39,5.43-2.4s1.48,2.92.94,4.55C508,48.86,503.06,51.89,495.45,51.89Z"/><path class="cls-1" d="M531.34,51.26c-7.8,0-11.15-3.31-11.22-11,0-5.64-.07-11.29,0-16.94,0-2.32-.7-3.61-3.22-3.43-2,.14-3.12-.7-3.08-2.91,0-2,1-2.89,2.93-2.73,3.3.26,3.54-1.83,3.34-4.24-.22-2.67.57-4.12,3.63-4,2.43.09,3.31,1,3.34,3.38.06,4.78.16,4.78,4.9,4.85l1.56,0c2,0,2.82,1.14,2.85,3s-1.1,2.47-2.8,2.63c-6.54.61-6.54.63-6.54,7.31,0,4.5-.06,9,0,13.49.07,3.46,1.34,4.73,4.75,4.91,2,.11,4.15-.11,4,3C535.72,50.89,535.15,51.28,531.34,51.26Z"/><path class="cls-1" d="M588.13,17.71c3-1.38,5.61-2.75,8.37-3.84,1.41-.55,3.16-.55,3.33,1.55.15,1.94.93,4.42-2.21,5-.82.15-1.67.1-2.49.25-4.61.84-7.1,3.78-7.11,8.37,0,6.26-.08,12.53,0,18.8,0,2.57-1,3.49-3.52,3.5s-3.49-1-3.47-3.56c.08-9.61,0-19.21.07-28.82,0-1.88-.93-4.41,2.46-4.75C586.61,13.87,588.19,15.06,588.13,17.71Z"/><path class="cls-1" d="M657.17,33c0,5-.07,10,0,15.05,0,2.53-1.14,3.24-3.46,3.23s-3.52-.63-3.5-3.18q.09-15.37,0-30.74c0-2.52,1.15-3.24,3.47-3.23s3.55.63,3.5,3.19C657.1,22.55,657.17,27.78,657.17,33Z"/><path class="cls-1" d="M653.64,7.84c-1.95-.27-3.81-1-3.94-3.65A4.24,4.24,0,0,1,653.85,0c2.28.15,4,1.23,4.29,3.7C658.36,5.72,656.07,7.84,653.64,7.84Z"/></g></g></svg>