<?xml version="1.0" standalone="no"?>
<!DOCTYPE svg PUBLIC "-//W3C//DTD SVG 20010904//EN"
 "http://www.w3.org/TR/2001/REC-SVG-20010904/DTD/svg10.dtd">
<svg version="1.0" xmlns="http://www.w3.org/2000/svg"
 width="512.000000pt" height="512.000000pt" viewBox="0 0 512.000000 512.000000"
 preserveAspectRatio="xMidYMid meet">
<metadata>
Created by potrace 1.14, written by Peter Selinger 2001-2017
</metadata>
<g transform="translate(0.000000,512.000000) scale(0.100000,-0.100000)"
fill="#000000" stroke="none">
<path d="M1343 4020 c-93 -19 -172 -80 -221 -173 l-27 -52 -3 -413 -3 -413
-37 -15 c-68 -27 -86 -39 -147 -96 -101 -94 -143 -215 -124 -355 21 -150 96
-254 234 -323 l70 -35 5 -410 c5 -392 6 -412 26 -456 31 -67 87 -124 152 -156
l57 -28 335 0 335 0 0 105 0 105 -318 5 -319 5 -24 28 -24 28 2 387 3 387 70
38 c145 79 225 194 233 336 11 190 -64 325 -228 410 l-80 42 0 380 c0 402 2
424 47 445 10 5 158 11 328 14 l310 5 3 99 c2 73 -1 102 -10 108 -17 10 -590
8 -645 -2z m-53 -1282 c96 -49 137 -174 88 -267 -13 -25 -40 -58 -61 -75 -32
-26 -49 -31 -107 -34 -61 -4 -75 -1 -114 22 -78 46 -115 137 -91 228 31 121
171 183 285 126z"/>
<path d="M3127 4024 c-4 -4 -7 -49 -7 -101 0 -91 1 -94 26 -103 14 -6 151 -10
314 -10 l289 0 28 -24 28 -24 0 -393 0 -393 -69 -36 c-140 -72 -226 -198 -234
-343 -6 -99 16 -186 68 -265 43 -67 92 -109 175 -149 l60 -28 3 -370 c3 -391
-1 -434 -41 -457 -16 -10 -102 -14 -322 -15 -165 -2 -306 -5 -313 -8 -9 -3
-12 -30 -10 -102 l3 -98 322 -3 c303 -2 325 -1 376 18 73 27 139 88 174 158
l28 57 3 408 3 407 66 32 c36 18 88 52 114 76 59 53 115 161 128 247 27 178
-69 356 -232 434 -46 22 -68 39 -72 54 -3 12 -6 198 -7 412 -3 386 -3 391 -27
442 -27 61 -93 126 -159 156 -45 21 -63 22 -377 25 -182 2 -334 0 -338 -4z
m887 -1280 c71 -37 109 -99 109 -181 0 -168 -193 -260 -329 -157 -104 78 -94
263 18 328 64 38 138 42 202 10z"/>
</g>
</svg>
